<svg id="svg" xmlns="http://www.w3.org/2000/svg" xmlns:xlink="http://www.w3.org/1999/xlink" width="400px" height="400px" viewBox="0, 0, 400,400" transform="rotate(0) scale(1, 1)"><g id="svgg"><path id="path0" d="M203.320 83.009 C 200.656 84.330,198.711 85.803,190.769 92.517 C 184.587 97.743,181.015 98.957,177.626 96.982 C 175.356 95.660,175.765 90.215,178.549 84.700 C 179.952 81.920,179.957 82.006,178.418 82.261 C 164.223 84.614,161.377 86.832,153.202 101.907 C 149.636 108.483,146.043 111.802,144.006 110.399 C 140.371 107.896,139.911 105.506,141.944 99.679 L 142.941 96.819 141.685 97.091 C 131.830 99.224,124.848 107.744,123.254 119.581 C 122.294 126.710,121.037 130.009,118.528 131.983 C 115.296 134.525,111.441 130.495,110.400 123.486 C 109.916 120.232,109.588 119.105,109.258 119.564 C 109.194 119.653,108.167 120.869,106.976 122.266 C 98.350 132.381,97.295 136.521,99.241 152.628 C 99.883 157.944,98.420 163.758,96.306 164.288 C 93.495 164.994,86.852 160.139,85.712 156.545 C 85.298 155.242,84.929 155.874,83.884 159.668 C 81.107 169.759,81.415 172.824,86.159 182.300 C 93.230 196.423,89.306 201.699,78.081 193.162 C 75.019 190.833,74.988 190.849,75.233 194.629 C 75.913 205.132,78.703 211.974,85.174 219.002 C 94.634 229.277,92.921 235.150,81.434 231.822 C 77.105 230.567,77.279 230.375,78.604 234.961 C 81.723 245.751,86.143 251.911,93.456 255.661 C 101.161 259.611,103.541 262.567,101.772 265.988 C 100.899 267.676,98.012 268.231,93.066 267.662 C 90.010 267.311,89.810 267.446,90.970 269.080 C 91.375 269.651,92.095 270.948,92.571 271.964 C 95.679 278.591,102.006 283.010,112.536 285.907 C 128.512 290.301,130.423 295.005,117.397 297.869 L 114.286 298.553 115.978 300.010 C 117.611 301.417,123.725 305.204,127.344 307.050 C 130.933 308.882,137.725 309.456,143.227 308.393 C 150.693 306.950,154.709 307.137,155.657 308.971 C 157.452 312.441,155.536 315.341,149.117 318.870 C 145.863 320.659,146.121 320.919,153.700 323.491 C 166.641 327.882,169.504 327.576,181.006 320.574 C 185.359 317.924,188.779 316.406,190.396 316.406 C 197.077 316.406,197.416 321.336,191.197 328.053 C 188.074 331.427,187.989 331.271,193.191 331.732 C 203.960 332.685,209.582 330.209,219.448 320.173 C 230.377 309.055,237.262 312.288,230.644 325.430 C 228.929 328.835,228.768 328.714,233.171 327.333 C 243.357 324.140,247.780 320.218,252.702 310.015 C 257.060 300.980,259.720 298.144,263.051 298.980 C 265.825 299.676,267.188 305.415,265.891 310.935 C 265.170 314.005,265.216 314.072,267.079 312.675 C 278.121 304.401,281.648 298.396,282.639 286.184 C 283.385 276.997,284.183 274.177,286.565 272.303 C 290.178 269.461,295.313 275.756,295.313 283.027 C 295.313 285.829,297.161 283.746,300.776 276.870 C 305.098 268.651,305.708 263.094,303.509 251.982 C 300.534 236.945,306.312 233.543,313.050 246.365 C 315.415 250.866,315.867 250.571,317.222 243.638 C 319.148 233.782,317.992 224.802,313.918 217.969 C 307.914 207.901,306.963 204.633,309.446 202.605 C 311.439 200.977,318.616 204.826,321.039 208.822 C 322.632 211.449,322.951 211.082,323.015 206.543 C 323.141 197.647,319.883 188.149,315.503 184.639 C 314.603 183.918,312.373 182.364,310.547 181.185 C 296.515 172.124,299.082 164.343,314.397 169.513 C 317.090 170.422,316.966 170.605,315.890 167.320 C 314.071 161.767,311.207 158.275,304.102 152.942 C 298.208 148.520,285.332 142.992,280.553 142.832 L 278.784 142.773 277.437 146.761 L 276.090 150.749 278.045 153.011 C 295.316 172.998,299.843 207.778,289.398 240.234 C 283.221 259.428,261.008 283.791,240.515 293.849 C 219.878 303.977,202.814 306.081,178.320 301.516 C 137.604 293.929,114.797 277.529,102.561 247.038 C 95.534 229.529,95.569 200.268,102.640 180.469 C 107.849 165.886,121.178 147.020,133.017 137.475 C 133.666 136.952,135.424 135.454,136.923 134.146 C 152.913 120.202,167.605 113.666,188.281 111.300 C 192.402 110.828,212.157 111.005,213.895 111.529 C 214.579 111.736,214.778 111.525,215.188 110.158 C 216.446 105.959,220.503 97.159,221.926 95.542 C 223.496 93.759,234.844 85.021,236.402 84.396 C 237.046 84.138,237.115 84.027,236.641 84.009 C 234.998 83.948,221.580 82.720,216.992 82.211 C 208.664 81.288,206.543 81.412,203.320 83.009 M235.647 109.473 C 235.435 109.741,234.245 113.037,233.003 116.797 C 231.762 120.557,229.616 126.797,228.235 130.664 C 225.489 138.358,221.135 150.795,216.408 164.453 C 214.735 169.287,212.893 174.473,212.314 175.977 C 211.735 177.480,210.204 181.787,208.912 185.547 C 206.378 192.923,206.079 193.640,205.756 193.117 C 205.489 192.682,199.172 176.548,195.837 167.781 C 192.388 158.714,187.735 146.740,186.667 144.182 L 185.786 142.075 175.413 142.334 C 156.104 142.817,151.511 143.223,145.882 144.949 C 120.540 152.719,107.118 170.724,103.243 202.148 C 97.897 245.499,120.971 282.616,157.860 290.006 C 187.080 295.860,210.848 289.921,234.683 270.810 C 235.193 270.401,234.305 269.321,228.583 263.388 C 224.899 259.570,219.818 254.127,217.290 251.294 C 211.652 244.974,211.925 245.089,208.869 247.749 C 202.761 253.066,189.974 258.594,183.594 258.676 C 182.086 258.695,181.736 258.784,182.422 258.973 C 183.374 259.236,183.366 259.250,182.111 259.539 C 178.360 260.403,168.155 259.581,168.589 258.451 C 168.770 257.979,164.871 256.406,163.774 256.508 C 163.507 256.532,163.404 256.367,163.545 256.140 C 163.705 255.880,163.552 255.822,163.130 255.984 C 162.761 256.125,162.556 256.084,162.675 255.893 C 162.793 255.701,162.363 255.361,161.718 255.136 C 161.074 254.912,160.547 254.811,160.547 254.913 C 160.547 255.015,160.021 254.826,159.378 254.494 C 158.735 254.161,158.251 253.703,158.304 253.476 C 158.356 253.248,157.966 252.769,157.439 252.410 C 156.911 252.051,156.613 251.978,156.778 252.246 C 157.592 253.573,156.070 252.443,153.792 250.028 C 150.109 246.124,148.215 241.529,146.656 232.715 L 146.397 231.250 161.675 231.187 C 170.078 231.153,177.612 231.090,178.418 231.048 C 179.224 231.007,193.446 230.836,210.022 230.668 C 226.599 230.501,240.347 230.250,240.574 230.109 C 241.051 229.815,244.109 222.344,247.782 212.500 C 249.185 208.740,252.032 201.270,254.109 195.898 C 256.185 190.527,259.077 182.705,260.536 178.516 C 261.995 174.326,264.644 166.768,266.422 161.719 C 268.200 156.670,272.152 145.156,275.206 136.133 C 278.259 127.109,281.482 117.705,282.367 115.234 C 284.626 108.935,285.144 109.542,277.246 109.242 C 264.751 108.768,236.078 108.927,235.647 109.473 M195.117 115.499 C 182.486 116.296,168.921 119.681,160.332 124.179 C 153.855 127.571,140.565 136.776,137.695 139.858 C 136.080 141.593,137.543 140.855,140.820 138.281 C 158.437 124.447,177.810 116.862,197.461 116.104 C 201.934 115.932,203.267 115.780,202.148 115.571 C 200.595 115.281,198.848 115.263,195.117 115.499 M197.461 119.522 C 180.918 120.400,164.884 125.621,156.592 132.829 L 155.664 133.635 156.641 133.383 C 157.178 133.244,159.199 132.202,161.133 131.067 C 174.022 123.501,185.073 120.721,202.344 120.701 C 210.385 120.692,212.884 120.447,211.795 119.774 C 211.087 119.336,203.473 119.203,197.461 119.522 M189.816 125.557 C 179.889 126.828,165.821 131.967,160.547 136.249 C 158.595 137.834,160.204 137.556,163.364 135.763 C 175.685 128.772,185.559 126.378,201.042 126.629 C 205.375 126.699,209.038 126.639,209.181 126.496 C 210.422 125.255,197.191 124.613,189.816 125.557 M187.695 131.881 C 183.487 132.637,176.260 134.543,174.379 135.393 C 171.455 136.715,174.511 136.462,179.189 134.995 C 187.527 132.381,197.632 131.464,206.193 132.547 C 209.041 132.907,209.570 132.058,206.804 131.567 C 204.026 131.073,191.000 131.288,187.695 131.881 M194.757 135.901 C 193.699 136.029,192.762 136.351,192.675 136.618 C 192.557 136.975,192.857 137.026,193.816 136.813 C 195.512 136.436,200.937 136.443,204.883 136.828 C 209.162 137.246,207.845 136.529,203.320 135.977 C 199.647 135.530,197.964 135.515,194.757 135.901 M195.646 141.668 C 195.033 141.831,194.548 142.901,194.537 144.116 C 194.533 144.481,194.927 144.298,195.665 143.591 L 196.799 142.505 201.622 142.781 C 204.854 142.965,206.316 142.927,206.055 142.664 C 205.127 141.731,197.982 141.047,195.646 141.668 M197.331 148.255 C 196.987 149.010,196.962 149.462,197.247 149.747 C 197.532 150.032,197.656 149.963,197.656 149.519 C 197.656 148.656,198.856 148.335,200.925 148.646 C 202.508 148.883,203.625 148.416,202.991 147.782 C 202.074 146.866,197.801 147.223,197.331 148.255 M273.253 156.624 C 273.126 156.829,272.720 156.884,272.351 156.746 C 271.554 156.447,271.741 156.729,274.615 160.156 C 275.606 161.338,277.090 163.403,277.912 164.746 C 279.518 167.368,280.122 167.989,279.051 165.918 C 278.447 164.750,278.446 164.691,279.041 165.185 C 279.397 165.479,279.688 165.863,279.688 166.038 C 279.688 166.213,279.892 166.850,280.143 167.455 C 280.394 168.060,280.618 168.643,280.641 168.750 C 280.664 168.857,281.311 170.264,282.078 171.875 C 293.047 194.913,290.127 230.246,275.282 254.102 C 266.265 268.592,246.815 285.034,231.596 291.033 C 215.870 297.232,202.005 298.899,184.961 296.642 C 183.748 296.481,183.546 296.529,184.059 296.856 C 186.222 298.238,202.068 298.988,209.071 298.040 C 227.070 295.603,238.963 290.645,252.536 279.919 C 272.508 264.136,282.863 249.065,286.652 230.263 C 292.905 199.240,289.603 177.716,275.701 158.887 C 273.621 156.070,273.605 156.054,273.253 156.624 M268.750 166.750 C 268.750 167.269,270.401 169.692,272.830 172.739 C 281.911 184.131,285.053 197.856,283.052 217.388 C 281.010 237.319,268.924 259.273,252.701 272.523 C 241.501 281.670,218.211 291.404,207.520 291.406 C 206.153 291.406,205.078 291.578,205.078 291.797 C 205.078 293.787,221.757 290.071,232.918 285.594 C 256.869 275.987,274.150 255.719,282.584 227.344 C 284.655 220.376,285.593 205.691,284.405 198.828 C 281.752 183.495,277.364 173.903,269.767 166.826 L 268.750 165.879 268.750 166.750 M267.041 172.542 C 266.581 173.003,266.800 173.396,268.784 175.661 C 277.399 185.496,280.270 209.688,275.202 229.737 C 271.138 245.811,256.213 265.133,242.188 272.476 C 239.032 274.129,237.849 275.007,238.142 275.481 C 238.294 275.727,238.220 275.789,237.962 275.630 C 237.244 275.186,234.921 276.555,235.588 277.029 C 236.017 277.335,235.990 277.372,235.458 277.201 C 234.780 276.983,229.838 279.187,230.198 279.547 C 230.709 280.058,237.206 277.507,237.561 276.655 C 237.635 276.478,239.188 275.575,241.013 274.648 C 255.181 267.450,270.013 250.045,275.235 234.490 C 281.971 214.423,278.958 182.450,269.562 174.277 C 268.310 173.188,267.176 172.408,267.041 172.542 M263.023 179.741 C 263.097 180.226,263.361 180.691,263.610 180.774 C 263.859 180.857,264.063 181.366,264.063 181.906 C 264.063 182.446,264.392 183.354,264.795 183.924 C 271.805 193.842,273.331 213.826,268.290 229.673 C 264.233 242.426,250.936 261.123,241.468 267.388 C 240.575 267.980,239.844 268.674,239.844 268.932 C 239.844 273.640,259.598 251.440,264.857 240.820 C 272.060 226.278,274.789 204.718,270.896 193.120 C 268.876 187.102,262.490 176.251,263.023 179.741 M166.045 181.134 C 167.254 181.848,167.148 181.600,172.129 195.461 C 173.509 199.302,174.559 202.525,174.462 202.621 C 174.365 202.718,167.835 202.899,159.949 203.022 L 145.612 203.248 145.879 200.745 C 146.350 196.334,148.912 189.938,151.295 187.225 C 155.291 182.673,163.154 179.426,166.045 181.134 M262.718 193.110 C 265.199 199.945,265.260 217.543,262.836 227.148 C 260.451 236.600,250.269 252.967,242.461 259.899 C 240.914 261.273,239.033 262.949,238.281 263.624 L 236.914 264.852 238.055 264.442 C 244.337 262.181,256.911 245.985,261.764 233.904 C 266.206 222.846,267.471 201.647,264.190 193.262 C 262.720 189.505,261.358 189.365,262.718 193.110 M258.332 198.535 C 259.096 201.674,259.037 214.412,258.238 219.018 C 255.937 232.278,247.664 246.696,236.371 257.129 C 233.653 259.640,233.857 260.108,236.747 257.987 C 244.318 252.429,255.405 235.771,258.180 225.781 C 261.115 215.220,261.596 205.522,259.482 199.512 C 258.828 197.649,257.932 196.889,258.332 198.535 M253.906 212.109 C 253.906 212.564,253.755 212.843,253.571 212.729 C 253.386 212.615,253.113 214.293,252.964 216.457 C 252.452 223.898,249.595 232.581,246.025 237.549 C 241.473 243.885,233.291 253.125,232.233 253.125 C 231.651 253.125,230.078 254.785,230.078 255.399 C 230.078 258.186,244.530 242.327,249.184 234.434 C 252.308 229.136,256.026 212.592,254.328 211.543 C 254.077 211.387,253.906 211.616,253.906 212.109 M166.430 239.701 C 166.542 241.338,180.183 249.228,184.176 249.966 C 186.251 250.350,187.618 250.271,186.286 249.844 C 185.987 249.748,184.775 249.370,183.594 249.004 C 180.634 248.085,172.890 244.094,170.440 242.224 C 167.622 240.074,166.402 239.306,166.430 239.701 M218.980 240.655 C 217.003 243.004,217.844 243.236,220.327 241.027 C 222.021 239.519,222.041 239.475,221.031 239.464 C 220.341 239.457,219.651 239.857,218.980 240.655 M225.434 243.313 C 223.476 245.436,221.875 247.291,221.875 247.436 C 221.875 248.181,224.543 245.971,226.443 243.653 C 227.631 242.203,229.067 240.671,229.634 240.247 C 230.608 239.520,230.619 239.477,229.828 239.466 C 229.262 239.457,227.843 240.700,225.434 243.313 M233.759 243.558 C 231.357 245.956,228.856 248.064,227.743 248.629 C 225.589 249.720,225.070 250.292,225.933 250.623 C 227.490 251.221,233.827 245.820,238.237 240.137 C 239.851 238.057,237.364 239.957,233.759 243.558 M187.109 240.179 C 187.109 242.452,199.372 243.242,203.077 241.207 C 203.994 240.704,203.528 240.669,198.633 240.877 C 193.638 241.089,191.037 240.876,187.988 240.004 C 187.460 239.853,187.109 239.923,187.109 240.179 M176.172 241.330 C 176.172 246.277,191.601 249.235,201.897 246.261 C 204.700 245.452,204.210 245.113,201.313 245.857 C 193.512 247.860,178.316 245.084,177.161 241.445 C 176.842 240.441,176.172 240.363,176.172 241.330 M156.712 243.419 C 159.312 248.242,163.358 251.769,168.518 253.711 C 172.426 255.182,172.542 254.691,168.731 252.815 C 163.610 250.294,159.588 246.661,156.572 241.831 C 155.407 239.966,155.516 241.201,156.712 243.419 M163.676 241.797 C 165.696 245.678,174.514 251.207,180.787 252.525 C 185.894 253.597,185.791 252.993,180.566 251.227 C 174.533 249.188,170.008 246.880,167.382 244.504 C 166.092 243.337,164.616 242.031,164.102 241.602 L 163.168 240.820 163.676 241.797 M170.898 258.798 C 171.973 259.096,173.203 259.333,173.633 259.323 C 174.063 259.313,173.535 259.061,172.461 258.762 C 171.387 258.463,170.156 258.227,169.727 258.237 C 169.297 258.247,169.824 258.500,170.898 258.798 M175.098 259.254 C 175.474 259.352,176.089 259.352,176.465 259.254 C 176.841 259.155,176.533 259.075,175.781 259.075 C 175.029 259.075,174.722 259.155,175.098 259.254 M178.223 259.254 C 178.599 259.352,179.214 259.352,179.590 259.254 C 179.966 259.155,179.658 259.075,178.906 259.075 C 178.154 259.075,177.847 259.155,178.223 259.254 " stroke="none" fill="#ffffff" fill-rule="evenodd"/></g></svg>